<global>
amp_veltrack=0
interval_mode=staffpad
xf_cccurve=gain
xfin_hicc1=127
xfin_locc1=0
xfout_hicc1=127
xfout_locc1=127

<group>
group_label=PP

<region>
hivel=13
key=A#2
lovel=13
sample=Contrabass_fast_legato_PP_A#2_-1.opus

<region>
hivel=14
key=A#2
lovel=14
sample=Contrabass_fast_legato_PP_A#2_-2.opus

<region>
hivel=15
key=A#2
lovel=15
sample=Contrabass_fast_legato_PP_A#2_-3.opus

<region>
hivel=16
key=A#2
lovel=16
sample=Contrabass_fast_legato_PP_A#2_-4.opus

<region>
hivel=17
key=A#2
lovel=17
sample=Contrabass_fast_legato_PP_A#2_-5.opus

<region>
hivel=18
key=A#2
lovel=18
sample=Contrabass_fast_legato_PP_A#2_-6.opus

<region>
hivel=19
key=A#2
lovel=19
sample=Contrabass_fast_legato_PP_A#2_-7.opus

<region>
hivel=20
key=A#2
lovel=20
sample=Contrabass_fast_legato_PP_A#2_-8.opus

<region>
hivel=21
key=A#2
lovel=21
sample=Contrabass_fast_legato_PP_A#2_-9.opus

<region>
hivel=22
key=A#2
lovel=22
sample=Contrabass_fast_legato_PP_A#2_-10.opus

<region>
hivel=23
key=A#2
lovel=23
sample=Contrabass_fast_legato_PP_A#2_-11.opus

<region>
hivel=24
key=A#2
lovel=24
sample=Contrabass_fast_legato_PP_A#2_-12.opus

<region>
hivel=1
key=A#2
lovel=1
sample=Contrabass_fast_legato_PP_A#2_+1.opus

<region>
hivel=2
key=A#2
lovel=2
sample=Contrabass_fast_legato_PP_A#2_+2.opus

<region>
hivel=3
key=A#2
lovel=3
sample=Contrabass_fast_legato_PP_A#2_+3.opus

<region>
hivel=4
key=A#2
lovel=4
sample=Contrabass_fast_legato_PP_A#2_+4.opus

<region>
hivel=5
key=A#2
lovel=5
sample=Contrabass_fast_legato_PP_A#2_+5.opus

<region>
hivel=6
key=A#2
lovel=6
sample=Contrabass_fast_legato_PP_A#2_+6.opus

<region>
hivel=7
key=A#2
lovel=7
sample=Contrabass_fast_legato_PP_A#2_+7.opus

<region>
hivel=8
key=A#2
lovel=8
sample=Contrabass_fast_legato_PP_A#2_+8.opus

<region>
hivel=9
key=A#2
lovel=9
sample=Contrabass_fast_legato_PP_A#2_+9.opus

<region>
hivel=10
key=A#2
lovel=10
sample=Contrabass_fast_legato_PP_A#2_+10.opus

<region>
hivel=11
key=A#2
lovel=11
sample=Contrabass_fast_legato_PP_A#2_+11.opus

<region>
hivel=12
key=A#2
lovel=12
sample=Contrabass_fast_legato_PP_A#2_+12.opus

<region>
hivel=0
key=A#2
lovel=0
sample=Contrabass_fast_legato_PP_A#2.opus

<region>
hivel=13
key=A#3
lovel=13
sample=Contrabass_fast_legato_PP_A#3_-1.opus

<region>
hivel=14
key=A#3
lovel=14
sample=Contrabass_fast_legato_PP_A#3_-2.opus

<region>
hivel=15
key=A#3
lovel=15
sample=Contrabass_fast_legato_PP_A#3_-3.opus

<region>
hivel=16
key=A#3
lovel=16
sample=Contrabass_fast_legato_PP_A#3_-4.opus

<region>
hivel=17
key=A#3
lovel=17
sample=Contrabass_fast_legato_PP_A#3_-5.opus

<region>
hivel=18
key=A#3
lovel=18
sample=Contrabass_fast_legato_PP_A#3_-6.opus

<region>
hivel=19
key=A#3
lovel=19
sample=Contrabass_fast_legato_PP_A#3_-7.opus

<region>
hivel=20
key=A#3
lovel=20
sample=Contrabass_fast_legato_PP_A#3_-8.opus

<region>
hivel=21
key=A#3
lovel=21
sample=Contrabass_fast_legato_PP_A#3_-9.opus

<region>
hivel=22
key=A#3
lovel=22
sample=Contrabass_fast_legato_PP_A#3_-10.opus

<region>
hivel=23
key=A#3
lovel=23
sample=Contrabass_fast_legato_PP_A#3_-11.opus

<region>
hivel=24
key=A#3
lovel=24
sample=Contrabass_fast_legato_PP_A#3_-12.opus

<region>
hivel=1
key=A#3
lovel=1
sample=Contrabass_fast_legato_PP_A#3_+1.opus

<region>
hivel=2
key=A#3
lovel=2
sample=Contrabass_fast_legato_PP_A#3_+2.opus

<region>
hivel=3
key=A#3
lovel=3
sample=Contrabass_fast_legato_PP_A#3_+3.opus

<region>
hivel=4
key=A#3
lovel=4
sample=Contrabass_fast_legato_PP_A#3_+4.opus

<region>
hivel=5
key=A#3
lovel=5
sample=Contrabass_fast_legato_PP_A#3_+5.opus

<region>
hivel=6
key=A#3
lovel=6
sample=Contrabass_fast_legato_PP_A#3_+6.opus

<region>
hivel=7
key=A#3
lovel=7
sample=Contrabass_fast_legato_PP_A#3_+7.opus

<region>
hivel=8
key=A#3
lovel=8
sample=Contrabass_fast_legato_PP_A#3_+8.opus

<region>
hivel=9
key=A#3
lovel=9
sample=Contrabass_fast_legato_PP_A#3_+9.opus

<region>
hivel=10
key=A#3
lovel=10
sample=Contrabass_fast_legato_PP_A#3_+10.opus

<region>
hivel=11
key=A#3
lovel=11
sample=Contrabass_fast_legato_PP_A#3_+11.opus

<region>
hivel=12
key=A#3
lovel=12
sample=Contrabass_fast_legato_PP_A#3_+12.opus

<region>
hivel=0
key=A#3
lovel=0
sample=Contrabass_fast_legato_PP_A#3.opus

<region>
hivel=13
key=A#4
lovel=13
sample=Contrabass_fast_legato_PP_A#4_-1.opus

<region>
hivel=14
key=A#4
lovel=14
sample=Contrabass_fast_legato_PP_A#4_-2.opus

<region>
hivel=1
key=A#4
lovel=1
sample=Contrabass_fast_legato_PP_A#4_+1.opus

<region>
hivel=2
key=A#4
lovel=2
sample=Contrabass_fast_legato_PP_A#4_+2.opus

<region>
hivel=0
key=A#4
lovel=0
sample=Contrabass_fast_legato_PP_A#4.opus

<region>
hivel=13
key=A2
lovel=13
sample=Contrabass_fast_legato_PP_A2_-1.opus

<region>
hivel=14
key=A2
lovel=14
sample=Contrabass_fast_legato_PP_A2_-2.opus

<region>
hivel=15
key=A2
lovel=15
sample=Contrabass_fast_legato_PP_A2_-3.opus

<region>
hivel=16
key=A2
lovel=16
sample=Contrabass_fast_legato_PP_A2_-4.opus

<region>
hivel=17
key=A2
lovel=17
sample=Contrabass_fast_legato_PP_A2_-5.opus

<region>
hivel=18
key=A2
lovel=18
sample=Contrabass_fast_legato_PP_A2_-6.opus

<region>
hivel=19
key=A2
lovel=19
sample=Contrabass_fast_legato_PP_A2_-7.opus

<region>
hivel=20
key=A2
lovel=20
sample=Contrabass_fast_legato_PP_A2_-8.opus

<region>
hivel=21
key=A2
lovel=21
sample=Contrabass_fast_legato_PP_A2_-9.opus

<region>
hivel=22
key=A2
lovel=22
sample=Contrabass_fast_legato_PP_A2_-10.opus

<region>
hivel=23
key=A2
lovel=23
sample=Contrabass_fast_legato_PP_A2_-11.opus

<region>
hivel=24
key=A2
lovel=24
sample=Contrabass_fast_legato_PP_A2_-12.opus

<region>
hivel=1
key=A2
lovel=1
sample=Contrabass_fast_legato_PP_A2_+1.opus

<region>
hivel=2
key=A2
lovel=2
sample=Contrabass_fast_legato_PP_A2_+2.opus

<region>
hivel=3
key=A2
lovel=3
sample=Contrabass_fast_legato_PP_A2_+3.opus

<region>
hivel=4
key=A2
lovel=4
sample=Contrabass_fast_legato_PP_A2_+4.opus

<region>
hivel=5
key=A2
lovel=5
sample=Contrabass_fast_legato_PP_A2_+5.opus

<region>
hivel=6
key=A2
lovel=6
sample=Contrabass_fast_legato_PP_A2_+6.opus

<region>
hivel=7
key=A2
lovel=7
sample=Contrabass_fast_legato_PP_A2_+7.opus

<region>
hivel=8
key=A2
lovel=8
sample=Contrabass_fast_legato_PP_A2_+8.opus

<region>
hivel=9
key=A2
lovel=9
sample=Contrabass_fast_legato_PP_A2_+9.opus

<region>
hivel=10
key=A2
lovel=10
sample=Contrabass_fast_legato_PP_A2_+10.opus

<region>
hivel=11
key=A2
lovel=11
sample=Contrabass_fast_legato_PP_A2_+11.opus

<region>
hivel=12
key=A2
lovel=12
sample=Contrabass_fast_legato_PP_A2_+12.opus

<region>
hivel=0
key=A2
lovel=0
sample=Contrabass_fast_legato_PP_A2.opus

<region>
hivel=13
key=A3
lovel=13
sample=Contrabass_fast_legato_PP_A3_-1.opus

<region>
hivel=14
key=A3
lovel=14
sample=Contrabass_fast_legato_PP_A3_-2.opus

<region>
hivel=15
key=A3
lovel=15
sample=Contrabass_fast_legato_PP_A3_-3.opus

<region>
hivel=16
key=A3
lovel=16
sample=Contrabass_fast_legato_PP_A3_-4.opus

<region>
hivel=17
key=A3
lovel=17
sample=Contrabass_fast_legato_PP_A3_-5.opus

<region>
hivel=18
key=A3
lovel=18
sample=Contrabass_fast_legato_PP_A3_-6.opus

<region>
hivel=19
key=A3
lovel=19
sample=Contrabass_fast_legato_PP_A3_-7.opus

<region>
hivel=20
key=A3
lovel=20
sample=Contrabass_fast_legato_PP_A3_-8.opus

<region>
hivel=21
key=A3
lovel=21
sample=Contrabass_fast_legato_PP_A3_-9.opus

<region>
hivel=22
key=A3
lovel=22
sample=Contrabass_fast_legato_PP_A3_-10.opus

<region>
hivel=23
key=A3
lovel=23
sample=Contrabass_fast_legato_PP_A3_-11.opus

<region>
hivel=24
key=A3
lovel=24
sample=Contrabass_fast_legato_PP_A3_-12.opus

<region>
hivel=1
key=A3
lovel=1
sample=Contrabass_fast_legato_PP_A3_+1.opus

<region>
hivel=2
key=A3
lovel=2
sample=Contrabass_fast_legato_PP_A3_+2.opus

<region>
hivel=3
key=A3
lovel=3
sample=Contrabass_fast_legato_PP_A3_+3.opus

<region>
hivel=4
key=A3
lovel=4
sample=Contrabass_fast_legato_PP_A3_+4.opus

<region>
hivel=5
key=A3
lovel=5
sample=Contrabass_fast_legato_PP_A3_+5.opus

<region>
hivel=6
key=A3
lovel=6
sample=Contrabass_fast_legato_PP_A3_+6.opus

<region>
hivel=7
key=A3
lovel=7
sample=Contrabass_fast_legato_PP_A3_+7.opus

<region>
hivel=8
key=A3
lovel=8
sample=Contrabass_fast_legato_PP_A3_+8.opus

<region>
hivel=9
key=A3
lovel=9
sample=Contrabass_fast_legato_PP_A3_+9.opus

<region>
hivel=10
key=A3
lovel=10
sample=Contrabass_fast_legato_PP_A3_+10.opus

<region>
hivel=11
key=A3
lovel=11
sample=Contrabass_fast_legato_PP_A3_+11.opus

<region>
hivel=12
key=A3
lovel=12
sample=Contrabass_fast_legato_PP_A3_+12.opus

<region>
hivel=0
key=A3
lovel=0
sample=Contrabass_fast_legato_PP_A3.opus

<region>
hivel=13
key=A4
lovel=13
sample=Contrabass_fast_legato_PP_A4_-1.opus

<region>
hivel=14
key=A4
lovel=14
sample=Contrabass_fast_legato_PP_A4_-2.opus

<region>
hivel=15
key=A4
lovel=15
sample=Contrabass_fast_legato_PP_A4_-3.opus

<region>
hivel=1
key=A4
lovel=1
sample=Contrabass_fast_legato_PP_A4_+1.opus

<region>
hivel=2
key=A4
lovel=2
sample=Contrabass_fast_legato_PP_A4_+2.opus

<region>
hivel=3
key=A4
lovel=3
sample=Contrabass_fast_legato_PP_A4_+3.opus

<region>
hivel=0
key=A4
lovel=0
sample=Contrabass_fast_legato_PP_A4.opus

<region>
hivel=13
key=B2
lovel=13
sample=Contrabass_fast_legato_PP_B2_-1.opus

<region>
hivel=14
key=B2
lovel=14
sample=Contrabass_fast_legato_PP_B2_-2.opus

<region>
hivel=15
key=B2
lovel=15
sample=Contrabass_fast_legato_PP_B2_-3.opus

<region>
hivel=16
key=B2
lovel=16
sample=Contrabass_fast_legato_PP_B2_-4.opus

<region>
hivel=17
key=B2
lovel=17
sample=Contrabass_fast_legato_PP_B2_-5.opus

<region>
hivel=18
key=B2
lovel=18
sample=Contrabass_fast_legato_PP_B2_-6.opus

<region>
hivel=19
key=B2
lovel=19
sample=Contrabass_fast_legato_PP_B2_-7.opus

<region>
hivel=20
key=B2
lovel=20
sample=Contrabass_fast_legato_PP_B2_-8.opus

<region>
hivel=21
key=B2
lovel=21
sample=Contrabass_fast_legato_PP_B2_-9.opus

<region>
hivel=22
key=B2
lovel=22
sample=Contrabass_fast_legato_PP_B2_-10.opus

<region>
hivel=23
key=B2
lovel=23
sample=Contrabass_fast_legato_PP_B2_-11.opus

<region>
hivel=24
key=B2
lovel=24
sample=Contrabass_fast_legato_PP_B2_-12.opus

<region>
hivel=1
key=B2
lovel=1
sample=Contrabass_fast_legato_PP_B2_+1.opus

<region>
hivel=2
key=B2
lovel=2
sample=Contrabass_fast_legato_PP_B2_+2.opus

<region>
hivel=3
key=B2
lovel=3
sample=Contrabass_fast_legato_PP_B2_+3.opus

<region>
hivel=4
key=B2
lovel=4
sample=Contrabass_fast_legato_PP_B2_+4.opus

<region>
hivel=5
key=B2
lovel=5
sample=Contrabass_fast_legato_PP_B2_+5.opus

<region>
hivel=6
key=B2
lovel=6
sample=Contrabass_fast_legato_PP_B2_+6.opus

<region>
hivel=7
key=B2
lovel=7
sample=Contrabass_fast_legato_PP_B2_+7.opus

<region>
hivel=8
key=B2
lovel=8
sample=Contrabass_fast_legato_PP_B2_+8.opus

<region>
hivel=9
key=B2
lovel=9
sample=Contrabass_fast_legato_PP_B2_+9.opus

<region>
hivel=10
key=B2
lovel=10
sample=Contrabass_fast_legato_PP_B2_+10.opus

<region>
hivel=11
key=B2
lovel=11
sample=Contrabass_fast_legato_PP_B2_+11.opus

<region>
hivel=12
key=B2
lovel=12
sample=Contrabass_fast_legato_PP_B2_+12.opus

<region>
hivel=0
key=B2
lovel=0
sample=Contrabass_fast_legato_PP_B2.opus

<region>
hivel=13
key=B3
lovel=13
sample=Contrabass_fast_legato_PP_B3_-1.opus

<region>
hivel=14
key=B3
lovel=14
sample=Contrabass_fast_legato_PP_B3_-2.opus

<region>
hivel=15
key=B3
lovel=15
sample=Contrabass_fast_legato_PP_B3_-3.opus

<region>
hivel=16
key=B3
lovel=16
sample=Contrabass_fast_legato_PP_B3_-4.opus

<region>
hivel=17
key=B3
lovel=17
sample=Contrabass_fast_legato_PP_B3_-5.opus

<region>
hivel=18
key=B3
lovel=18
sample=Contrabass_fast_legato_PP_B3_-6.opus

<region>
hivel=19
key=B3
lovel=19
sample=Contrabass_fast_legato_PP_B3_-7.opus

<region>
hivel=20
key=B3
lovel=20
sample=Contrabass_fast_legato_PP_B3_-8.opus

<region>
hivel=21
key=B3
lovel=21
sample=Contrabass_fast_legato_PP_B3_-9.opus

<region>
hivel=22
key=B3
lovel=22
sample=Contrabass_fast_legato_PP_B3_-10.opus

<region>
hivel=23
key=B3
lovel=23
sample=Contrabass_fast_legato_PP_B3_-11.opus

<region>
hivel=24
key=B3
lovel=24
sample=Contrabass_fast_legato_PP_B3_-12.opus

<region>
hivel=1
key=B3
lovel=1
sample=Contrabass_fast_legato_PP_B3_+1.opus

<region>
hivel=2
key=B3
lovel=2
sample=Contrabass_fast_legato_PP_B3_+2.opus

<region>
hivel=3
key=B3
lovel=3
sample=Contrabass_fast_legato_PP_B3_+3.opus

<region>
hivel=4
key=B3
lovel=4
sample=Contrabass_fast_legato_PP_B3_+4.opus

<region>
hivel=5
key=B3
lovel=5
sample=Contrabass_fast_legato_PP_B3_+5.opus

<region>
hivel=6
key=B3
lovel=6
sample=Contrabass_fast_legato_PP_B3_+6.opus

<region>
hivel=7
key=B3
lovel=7
sample=Contrabass_fast_legato_PP_B3_+7.opus

<region>
hivel=8
key=B3
lovel=8
sample=Contrabass_fast_legato_PP_B3_+8.opus

<region>
hivel=9
key=B3
lovel=9
sample=Contrabass_fast_legato_PP_B3_+9.opus

<region>
hivel=10
key=B3
lovel=10
sample=Contrabass_fast_legato_PP_B3_+10.opus

<region>
hivel=11
key=B3
lovel=11
sample=Contrabass_fast_legato_PP_B3_+11.opus

<region>
hivel=12
key=B3
lovel=12
sample=Contrabass_fast_legato_PP_B3_+12.opus

<region>
hivel=0
key=B3
lovel=0
sample=Contrabass_fast_legato_PP_B3.opus

<region>
hivel=13
key=B4
lovel=13
sample=Contrabass_fast_legato_PP_B4_-1.opus

<region>
hivel=1
key=B4
lovel=1
sample=Contrabass_fast_legato_PP_B4_+1.opus

<region>
hivel=0
key=B4
lovel=0
sample=Contrabass_fast_legato_PP_B4.opus

<region>
hivel=13
key=C#2
lovel=13
sample=Contrabass_fast_legato_PP_C#2_-1.opus

<region>
hivel=14
key=C#2
lovel=14
sample=Contrabass_fast_legato_PP_C#2_-2.opus

<region>
hivel=15
key=C#2
lovel=15
sample=Contrabass_fast_legato_PP_C#2_-3.opus

<region>
hivel=16
key=C#2
lovel=16
sample=Contrabass_fast_legato_PP_C#2_-4.opus

<region>
hivel=17
key=C#2
lovel=17
sample=Contrabass_fast_legato_PP_C#2_-5.opus

<region>
hivel=18
key=C#2
lovel=18
sample=Contrabass_fast_legato_PP_C#2_-6.opus

<region>
hivel=19
key=C#2
lovel=19
sample=Contrabass_fast_legato_PP_C#2_-7.opus

<region>
hivel=20
key=C#2
lovel=20
sample=Contrabass_fast_legato_PP_C#2_-8.opus

<region>
hivel=21
key=C#2
lovel=21
sample=Contrabass_fast_legato_PP_C#2_-9.opus

<region>
hivel=22
key=C#2
lovel=22
sample=Contrabass_fast_legato_PP_C#2_-10.opus

<region>
hivel=23
key=C#2
lovel=23
sample=Contrabass_fast_legato_PP_C#2_-11.opus

<region>
hivel=24
key=C#2
lovel=24
sample=Contrabass_fast_legato_PP_C#2_-12.opus

<region>
hivel=1
key=C#2
lovel=1
sample=Contrabass_fast_legato_PP_C#2_+1.opus

<region>
hivel=2
key=C#2
lovel=2
sample=Contrabass_fast_legato_PP_C#2_+2.opus

<region>
hivel=3
key=C#2
lovel=3
sample=Contrabass_fast_legato_PP_C#2_+3.opus

<region>
hivel=4
key=C#2
lovel=4
sample=Contrabass_fast_legato_PP_C#2_+4.opus

<region>
hivel=5
key=C#2
lovel=5
sample=Contrabass_fast_legato_PP_C#2_+5.opus

<region>
hivel=6
key=C#2
lovel=6
sample=Contrabass_fast_legato_PP_C#2_+6.opus

<region>
hivel=7
key=C#2
lovel=7
sample=Contrabass_fast_legato_PP_C#2_+7.opus

<region>
hivel=8
key=C#2
lovel=8
sample=Contrabass_fast_legato_PP_C#2_+8.opus

<region>
hivel=9
key=C#2
lovel=9
sample=Contrabass_fast_legato_PP_C#2_+9.opus

<region>
hivel=10
key=C#2
lovel=10
sample=Contrabass_fast_legato_PP_C#2_+10.opus

<region>
hivel=11
key=C#2
lovel=11
sample=Contrabass_fast_legato_PP_C#2_+11.opus

<region>
hivel=12
key=C#2
lovel=12
sample=Contrabass_fast_legato_PP_C#2_+12.opus

<region>
hivel=0
key=C#2
lovel=0
sample=Contrabass_fast_legato_PP_C#2.opus

<region>
hivel=13
key=C#3
lovel=13
sample=Contrabass_fast_legato_PP_C#3_-1.opus

<region>
hivel=14
key=C#3
lovel=14
sample=Contrabass_fast_legato_PP_C#3_-2.opus

<region>
hivel=15
key=C#3
lovel=15
sample=Contrabass_fast_legato_PP_C#3_-3.opus

<region>
hivel=16
key=C#3
lovel=16
sample=Contrabass_fast_legato_PP_C#3_-4.opus

<region>
hivel=17
key=C#3
lovel=17
sample=Contrabass_fast_legato_PP_C#3_-5.opus

<region>
hivel=18
key=C#3
lovel=18
sample=Contrabass_fast_legato_PP_C#3_-6.opus

<region>
hivel=19
key=C#3
lovel=19
sample=Contrabass_fast_legato_PP_C#3_-7.opus

<region>
hivel=20
key=C#3
lovel=20
sample=Contrabass_fast_legato_PP_C#3_-8.opus

<region>
hivel=21
key=C#3
lovel=21
sample=Contrabass_fast_legato_PP_C#3_-9.opus

<region>
hivel=22
key=C#3
lovel=22
sample=Contrabass_fast_legato_PP_C#3_-10.opus

<region>
hivel=23
key=C#3
lovel=23
sample=Contrabass_fast_legato_PP_C#3_-11.opus

<region>
hivel=24
key=C#3
lovel=24
sample=Contrabass_fast_legato_PP_C#3_-12.opus

<region>
hivel=1
key=C#3
lovel=1
sample=Contrabass_fast_legato_PP_C#3_+1.opus

<region>
hivel=2
key=C#3
lovel=2
sample=Contrabass_fast_legato_PP_C#3_+2.opus

<region>
hivel=3
key=C#3
lovel=3
sample=Contrabass_fast_legato_PP_C#3_+3.opus

<region>
hivel=4
key=C#3
lovel=4
sample=Contrabass_fast_legato_PP_C#3_+4.opus

<region>
hivel=5
key=C#3
lovel=5
sample=Contrabass_fast_legato_PP_C#3_+5.opus

<region>
hivel=6
key=C#3
lovel=6
sample=Contrabass_fast_legato_PP_C#3_+6.opus

<region>
hivel=7
key=C#3
lovel=7
sample=Contrabass_fast_legato_PP_C#3_+7.opus

<region>
hivel=8
key=C#3
lovel=8
sample=Contrabass_fast_legato_PP_C#3_+8.opus

<region>
hivel=9
key=C#3
lovel=9
sample=Contrabass_fast_legato_PP_C#3_+9.opus

<region>
hivel=10
key=C#3
lovel=10
sample=Contrabass_fast_legato_PP_C#3_+10.opus

<region>
hivel=11
key=C#3
lovel=11
sample=Contrabass_fast_legato_PP_C#3_+11.opus

<region>
hivel=12
key=C#3
lovel=12
sample=Contrabass_fast_legato_PP_C#3_+12.opus

<region>
hivel=0
key=C#3
lovel=0
sample=Contrabass_fast_legato_PP_C#3.opus

<region>
hivel=13
key=C#4
lovel=13
sample=Contrabass_fast_legato_PP_C#4_-1.opus

<region>
hivel=14
key=C#4
lovel=14
sample=Contrabass_fast_legato_PP_C#4_-2.opus

<region>
hivel=15
key=C#4
lovel=15
sample=Contrabass_fast_legato_PP_C#4_-3.opus

<region>
hivel=16
key=C#4
lovel=16
sample=Contrabass_fast_legato_PP_C#4_-4.opus

<region>
hivel=17
key=C#4
lovel=17
sample=Contrabass_fast_legato_PP_C#4_-5.opus

<region>
hivel=18
key=C#4
lovel=18
sample=Contrabass_fast_legato_PP_C#4_-6.opus

<region>
hivel=19
key=C#4
lovel=19
sample=Contrabass_fast_legato_PP_C#4_-7.opus

<region>
hivel=20
key=C#4
lovel=20
sample=Contrabass_fast_legato_PP_C#4_-8.opus

<region>
hivel=21
key=C#4
lovel=21
sample=Contrabass_fast_legato_PP_C#4_-9.opus

<region>
hivel=22
key=C#4
lovel=22
sample=Contrabass_fast_legato_PP_C#4_-10.opus

<region>
hivel=23
key=C#4
lovel=23
sample=Contrabass_fast_legato_PP_C#4_-11.opus

<region>
hivel=1
key=C#4
lovel=1
sample=Contrabass_fast_legato_PP_C#4_+1.opus

<region>
hivel=2
key=C#4
lovel=2
sample=Contrabass_fast_legato_PP_C#4_+2.opus

<region>
hivel=3
key=C#4
lovel=3
sample=Contrabass_fast_legato_PP_C#4_+3.opus

<region>
hivel=4
key=C#4
lovel=4
sample=Contrabass_fast_legato_PP_C#4_+4.opus

<region>
hivel=5
key=C#4
lovel=5
sample=Contrabass_fast_legato_PP_C#4_+5.opus

<region>
hivel=6
key=C#4
lovel=6
sample=Contrabass_fast_legato_PP_C#4_+6.opus

<region>
hivel=7
key=C#4
lovel=7
sample=Contrabass_fast_legato_PP_C#4_+7.opus

<region>
hivel=8
key=C#4
lovel=8
sample=Contrabass_fast_legato_PP_C#4_+8.opus

<region>
hivel=9
key=C#4
lovel=9
sample=Contrabass_fast_legato_PP_C#4_+9.opus

<region>
hivel=10
key=C#4
lovel=10
sample=Contrabass_fast_legato_PP_C#4_+10.opus

<region>
hivel=11
key=C#4
lovel=11
sample=Contrabass_fast_legato_PP_C#4_+11.opus

<region>
hivel=0
key=C#4
lovel=0
sample=Contrabass_fast_legato_PP_C#4.opus

<region>
hivel=13
key=C2
lovel=13
sample=Contrabass_fast_legato_PP_C2_-1.opus

<region>
hivel=14
key=C2
lovel=14
sample=Contrabass_fast_legato_PP_C2_-2.opus

<region>
hivel=15
key=C2
lovel=15
sample=Contrabass_fast_legato_PP_C2_-3.opus

<region>
hivel=16
key=C2
lovel=16
sample=Contrabass_fast_legato_PP_C2_-4.opus

<region>
hivel=17
key=C2
lovel=17
sample=Contrabass_fast_legato_PP_C2_-5.opus

<region>
hivel=18
key=C2
lovel=18
sample=Contrabass_fast_legato_PP_C2_-6.opus

<region>
hivel=19
key=C2
lovel=19
sample=Contrabass_fast_legato_PP_C2_-7.opus

<region>
hivel=20
key=C2
lovel=20
sample=Contrabass_fast_legato_PP_C2_-8.opus

<region>
hivel=21
key=C2
lovel=21
sample=Contrabass_fast_legato_PP_C2_-9.opus

<region>
hivel=22
key=C2
lovel=22
sample=Contrabass_fast_legato_PP_C2_-10.opus

<region>
hivel=23
key=C2
lovel=23
sample=Contrabass_fast_legato_PP_C2_-11.opus

<region>
hivel=24
key=C2
lovel=24
sample=Contrabass_fast_legato_PP_C2_-12.opus

<region>
hivel=1
key=C2
lovel=1
sample=Contrabass_fast_legato_PP_C2_+1.opus

<region>
hivel=2
key=C2
lovel=2
sample=Contrabass_fast_legato_PP_C2_+2.opus

<region>
hivel=3
key=C2
lovel=3
sample=Contrabass_fast_legato_PP_C2_+3.opus

<region>
hivel=4
key=C2
lovel=4
sample=Contrabass_fast_legato_PP_C2_+4.opus

<region>
hivel=5
key=C2
lovel=5
sample=Contrabass_fast_legato_PP_C2_+5.opus

<region>
hivel=6
key=C2
lovel=6
sample=Contrabass_fast_legato_PP_C2_+6.opus

<region>
hivel=7
key=C2
lovel=7
sample=Contrabass_fast_legato_PP_C2_+7.opus

<region>
hivel=8
key=C2
lovel=8
sample=Contrabass_fast_legato_PP_C2_+8.opus

<region>
hivel=9
key=C2
lovel=9
sample=Contrabass_fast_legato_PP_C2_+9.opus

<region>
hivel=10
key=C2
lovel=10
sample=Contrabass_fast_legato_PP_C2_+10.opus

<region>
hivel=11
key=C2
lovel=11
sample=Contrabass_fast_legato_PP_C2_+11.opus

<region>
hivel=12
key=C2
lovel=12
sample=Contrabass_fast_legato_PP_C2_+12.opus

<region>
hivel=0
key=C2
lovel=0
sample=Contrabass_fast_legato_PP_C2.opus

<region>
hivel=13
key=C3
lovel=13
sample=Contrabass_fast_legato_PP_C3_-1.opus

<region>
hivel=14
key=C3
lovel=14
sample=Contrabass_fast_legato_PP_C3_-2.opus

<region>
hivel=15
key=C3
lovel=15
sample=Contrabass_fast_legato_PP_C3_-3.opus

<region>
hivel=16
key=C3
lovel=16
sample=Contrabass_fast_legato_PP_C3_-4.opus

<region>
hivel=17
key=C3
lovel=17
sample=Contrabass_fast_legato_PP_C3_-5.opus

<region>
hivel=18
key=C3
lovel=18
sample=Contrabass_fast_legato_PP_C3_-6.opus

<region>
hivel=19
key=C3
lovel=19
sample=Contrabass_fast_legato_PP_C3_-7.opus

<region>
hivel=20
key=C3
lovel=20
sample=Contrabass_fast_legato_PP_C3_-8.opus

<region>
hivel=21
key=C3
lovel=21
sample=Contrabass_fast_legato_PP_C3_-9.opus

<region>
hivel=22
key=C3
lovel=22
sample=Contrabass_fast_legato_PP_C3_-10.opus

<region>
hivel=23
key=C3
lovel=23
sample=Contrabass_fast_legato_PP_C3_-11.opus

<region>
hivel=24
key=C3
lovel=24
sample=Contrabass_fast_legato_PP_C3_-12.opus

<region>
hivel=1
key=C3
lovel=1
sample=Contrabass_fast_legato_PP_C3_+1.opus

<region>
hivel=2
key=C3
lovel=2
sample=Contrabass_fast_legato_PP_C3_+2.opus

<region>
hivel=3
key=C3
lovel=3
sample=Contrabass_fast_legato_PP_C3_+3.opus

<region>
hivel=4
key=C3
lovel=4
sample=Contrabass_fast_legato_PP_C3_+4.opus

<region>
hivel=5
key=C3
lovel=5
sample=Contrabass_fast_legato_PP_C3_+5.opus

<region>
hivel=6
key=C3
lovel=6
sample=Contrabass_fast_legato_PP_C3_+6.opus

<region>
hivel=7
key=C3
lovel=7
sample=Contrabass_fast_legato_PP_C3_+7.opus

<region>
hivel=8
key=C3
lovel=8
sample=Contrabass_fast_legato_PP_C3_+8.opus

<region>
hivel=9
key=C3
lovel=9
sample=Contrabass_fast_legato_PP_C3_+9.opus

<region>
hivel=10
key=C3
lovel=10
sample=Contrabass_fast_legato_PP_C3_+10.opus

<region>
hivel=11
key=C3
lovel=11
sample=Contrabass_fast_legato_PP_C3_+11.opus

<region>
hivel=12
key=C3
lovel=12
sample=Contrabass_fast_legato_PP_C3_+12.opus

<region>
hivel=0
key=C3
lovel=0
sample=Contrabass_fast_legato_PP_C3.opus

<region>
hivel=13
key=C4
lovel=13
sample=Contrabass_fast_legato_PP_C4_-1.opus

<region>
hivel=14
key=C4
lovel=14
sample=Contrabass_fast_legato_PP_C4_-2.opus

<region>
hivel=15
key=C4
lovel=15
sample=Contrabass_fast_legato_PP_C4_-3.opus

<region>
hivel=16
key=C4
lovel=16
sample=Contrabass_fast_legato_PP_C4_-4.opus

<region>
hivel=17
key=C4
lovel=17
sample=Contrabass_fast_legato_PP_C4_-5.opus

<region>
hivel=18
key=C4
lovel=18
sample=Contrabass_fast_legato_PP_C4_-6.opus

<region>
hivel=19
key=C4
lovel=19
sample=Contrabass_fast_legato_PP_C4_-7.opus

<region>
hivel=20
key=C4
lovel=20
sample=Contrabass_fast_legato_PP_C4_-8.opus

<region>
hivel=21
key=C4
lovel=21
sample=Contrabass_fast_legato_PP_C4_-9.opus

<region>
hivel=22
key=C4
lovel=22
sample=Contrabass_fast_legato_PP_C4_-10.opus

<region>
hivel=23
key=C4
lovel=23
sample=Contrabass_fast_legato_PP_C4_-11.opus

<region>
hivel=1
key=C4
lovel=1
sample=Contrabass_fast_legato_PP_C4_+1.opus

<region>
hivel=2
key=C4
lovel=2
sample=Contrabass_fast_legato_PP_C4_+2.opus

<region>
hivel=3
key=C4
lovel=3
sample=Contrabass_fast_legato_PP_C4_+3.opus

<region>
hivel=4
key=C4
lovel=4
sample=Contrabass_fast_legato_PP_C4_+4.opus

<region>
hivel=5
key=C4
lovel=5
sample=Contrabass_fast_legato_PP_C4_+5.opus

<region>
hivel=6
key=C4
lovel=6
sample=Contrabass_fast_legato_PP_C4_+6.opus

<region>
hivel=7
key=C4
lovel=7
sample=Contrabass_fast_legato_PP_C4_+7.opus

<region>
hivel=8
key=C4
lovel=8
sample=Contrabass_fast_legato_PP_C4_+8.opus

<region>
hivel=9
key=C4
lovel=9
sample=Contrabass_fast_legato_PP_C4_+9.opus

<region>
hivel=10
key=C4
lovel=10
sample=Contrabass_fast_legato_PP_C4_+10.opus

<region>
hivel=11
key=C4
lovel=11
sample=Contrabass_fast_legato_PP_C4_+11.opus

<region>
hivel=0
key=C4
lovel=0
sample=Contrabass_fast_legato_PP_C4.opus

<region>
hivel=13
key=D#2
lovel=13
sample=Contrabass_fast_legato_PP_D#2_-1.opus

<region>
hivel=14
key=D#2
lovel=14
sample=Contrabass_fast_legato_PP_D#2_-2.opus

<region>
hivel=15
key=D#2
lovel=15
sample=Contrabass_fast_legato_PP_D#2_-3.opus

<region>
hivel=16
key=D#2
lovel=16
sample=Contrabass_fast_legato_PP_D#2_-4.opus

<region>
hivel=17
key=D#2
lovel=17
sample=Contrabass_fast_legato_PP_D#2_-5.opus

<region>
hivel=18
key=D#2
lovel=18
sample=Contrabass_fast_legato_PP_D#2_-6.opus

<region>
hivel=19
key=D#2
lovel=19
sample=Contrabass_fast_legato_PP_D#2_-7.opus

<region>
hivel=20
key=D#2
lovel=20
sample=Contrabass_fast_legato_PP_D#2_-8.opus

<region>
hivel=21
key=D#2
lovel=21
sample=Contrabass_fast_legato_PP_D#2_-9.opus

<region>
hivel=22
key=D#2
lovel=22
sample=Contrabass_fast_legato_PP_D#2_-10.opus

<region>
hivel=23
key=D#2
lovel=23
sample=Contrabass_fast_legato_PP_D#2_-11.opus

<region>
hivel=24
key=D#2
lovel=24
sample=Contrabass_fast_legato_PP_D#2_-12.opus

<region>
hivel=1
key=D#2
lovel=1
sample=Contrabass_fast_legato_PP_D#2_+1.opus

<region>
hivel=2
key=D#2
lovel=2
sample=Contrabass_fast_legato_PP_D#2_+2.opus

<region>
hivel=3
key=D#2
lovel=3
sample=Contrabass_fast_legato_PP_D#2_+3.opus

<region>
hivel=4
key=D#2
lovel=4
sample=Contrabass_fast_legato_PP_D#2_+4.opus

<region>
hivel=5
key=D#2
lovel=5
sample=Contrabass_fast_legato_PP_D#2_+5.opus

<region>
hivel=6
key=D#2
lovel=6
sample=Contrabass_fast_legato_PP_D#2_+6.opus

<region>
hivel=7
key=D#2
lovel=7
sample=Contrabass_fast_legato_PP_D#2_+7.opus

<region>
hivel=8
key=D#2
lovel=8
sample=Contrabass_fast_legato_PP_D#2_+8.opus

<region>
hivel=9
key=D#2
lovel=9
sample=Contrabass_fast_legato_PP_D#2_+9.opus

<region>
hivel=10
key=D#2
lovel=10
sample=Contrabass_fast_legato_PP_D#2_+10.opus

<region>
hivel=11
key=D#2
lovel=11
sample=Contrabass_fast_legato_PP_D#2_+11.opus

<region>
hivel=12
key=D#2
lovel=12
sample=Contrabass_fast_legato_PP_D#2_+12.opus

<region>
hivel=0
key=D#2
lovel=0
sample=Contrabass_fast_legato_PP_D#2.opus

<region>
hivel=13
key=D#3
lovel=13
sample=Contrabass_fast_legato_PP_D#3_-1.opus

<region>
hivel=14
key=D#3
lovel=14
sample=Contrabass_fast_legato_PP_D#3_-2.opus

<region>
hivel=15
key=D#3
lovel=15
sample=Contrabass_fast_legato_PP_D#3_-3.opus

<region>
hivel=16
key=D#3
lovel=16
sample=Contrabass_fast_legato_PP_D#3_-4.opus

<region>
hivel=17
key=D#3
lovel=17
sample=Contrabass_fast_legato_PP_D#3_-5.opus

<region>
hivel=18
key=D#3
lovel=18
sample=Contrabass_fast_legato_PP_D#3_-6.opus

<region>
hivel=19
key=D#3
lovel=19
sample=Contrabass_fast_legato_PP_D#3_-7.opus

<region>
hivel=20
key=D#3
lovel=20
sample=Contrabass_fast_legato_PP_D#3_-8.opus

<region>
hivel=21
key=D#3
lovel=21
sample=Contrabass_fast_legato_PP_D#3_-9.opus

<region>
hivel=22
key=D#3
lovel=22
sample=Contrabass_fast_legato_PP_D#3_-10.opus

<region>
hivel=23
key=D#3
lovel=23
sample=Contrabass_fast_legato_PP_D#3_-11.opus

<region>
hivel=24
key=D#3
lovel=24
sample=Contrabass_fast_legato_PP_D#3_-12.opus

<region>
hivel=1
key=D#3
lovel=1
sample=Contrabass_fast_legato_PP_D#3_+1.opus

<region>
hivel=2
key=D#3
lovel=2
sample=Contrabass_fast_legato_PP_D#3_+2.opus

<region>
hivel=3
key=D#3
lovel=3
sample=Contrabass_fast_legato_PP_D#3_+3.opus

<region>
hivel=4
key=D#3
lovel=4
sample=Contrabass_fast_legato_PP_D#3_+4.opus

<region>
hivel=5
key=D#3
lovel=5
sample=Contrabass_fast_legato_PP_D#3_+5.opus

<region>
hivel=6
key=D#3
lovel=6
sample=Contrabass_fast_legato_PP_D#3_+6.opus

<region>
hivel=7
key=D#3
lovel=7
sample=Contrabass_fast_legato_PP_D#3_+7.opus

<region>
hivel=8
key=D#3
lovel=8
sample=Contrabass_fast_legato_PP_D#3_+8.opus

<region>
hivel=9
key=D#3
lovel=9
sample=Contrabass_fast_legato_PP_D#3_+9.opus

<region>
hivel=10
key=D#3
lovel=10
sample=Contrabass_fast_legato_PP_D#3_+10.opus

<region>
hivel=11
key=D#3
lovel=11
sample=Contrabass_fast_legato_PP_D#3_+11.opus

<region>
hivel=12
key=D#3
lovel=12
sample=Contrabass_fast_legato_PP_D#3_+12.opus

<region>
hivel=0
key=D#3
lovel=0
sample=Contrabass_fast_legato_PP_D#3.opus

<region>
hivel=13
key=D#4
lovel=13
sample=Contrabass_fast_legato_PP_D#4_-1.opus

<region>
hivel=14
key=D#4
lovel=14
sample=Contrabass_fast_legato_PP_D#4_-2.opus

<region>
hivel=15
key=D#4
lovel=15
sample=Contrabass_fast_legato_PP_D#4_-3.opus

<region>
hivel=16
key=D#4
lovel=16
sample=Contrabass_fast_legato_PP_D#4_-4.opus

<region>
hivel=17
key=D#4
lovel=17
sample=Contrabass_fast_legato_PP_D#4_-5.opus

<region>
hivel=18
key=D#4
lovel=18
sample=Contrabass_fast_legato_PP_D#4_-6.opus

<region>
hivel=19
key=D#4
lovel=19
sample=Contrabass_fast_legato_PP_D#4_-7.opus

<region>
hivel=20
key=D#4
lovel=20
sample=Contrabass_fast_legato_PP_D#4_-8.opus

<region>
hivel=21
key=D#4
lovel=21
sample=Contrabass_fast_legato_PP_D#4_-9.opus

<region>
hivel=1
key=D#4
lovel=1
sample=Contrabass_fast_legato_PP_D#4_+1.opus

<region>
hivel=2
key=D#4
lovel=2
sample=Contrabass_fast_legato_PP_D#4_+2.opus

<region>
hivel=3
key=D#4
lovel=3
sample=Contrabass_fast_legato_PP_D#4_+3.opus

<region>
hivel=4
key=D#4
lovel=4
sample=Contrabass_fast_legato_PP_D#4_+4.opus

<region>
hivel=5
key=D#4
lovel=5
sample=Contrabass_fast_legato_PP_D#4_+5.opus

<region>
hivel=6
key=D#4
lovel=6
sample=Contrabass_fast_legato_PP_D#4_+6.opus

<region>
hivel=7
key=D#4
lovel=7
sample=Contrabass_fast_legato_PP_D#4_+7.opus

<region>
hivel=8
key=D#4
lovel=8
sample=Contrabass_fast_legato_PP_D#4_+8.opus

<region>
hivel=9
key=D#4
lovel=9
sample=Contrabass_fast_legato_PP_D#4_+9.opus

<region>
hivel=0
key=D#4
lovel=0
sample=Contrabass_fast_legato_PP_D#4.opus

<region>
hivel=13
key=D2
lovel=13
sample=Contrabass_fast_legato_PP_D2_-1.opus

<region>
hivel=14
key=D2
lovel=14
sample=Contrabass_fast_legato_PP_D2_-2.opus

<region>
hivel=15
key=D2
lovel=15
sample=Contrabass_fast_legato_PP_D2_-3.opus

<region>
hivel=16
key=D2
lovel=16
sample=Contrabass_fast_legato_PP_D2_-4.opus

<region>
hivel=17
key=D2
lovel=17
sample=Contrabass_fast_legato_PP_D2_-5.opus

<region>
hivel=18
key=D2
lovel=18
sample=Contrabass_fast_legato_PP_D2_-6.opus

<region>
hivel=19
key=D2
lovel=19
sample=Contrabass_fast_legato_PP_D2_-7.opus

<region>
hivel=20
key=D2
lovel=20
sample=Contrabass_fast_legato_PP_D2_-8.opus

<region>
hivel=21
key=D2
lovel=21
sample=Contrabass_fast_legato_PP_D2_-9.opus

<region>
hivel=22
key=D2
lovel=22
sample=Contrabass_fast_legato_PP_D2_-10.opus

<region>
hivel=23
key=D2
lovel=23
sample=Contrabass_fast_legato_PP_D2_-11.opus

<region>
hivel=24
key=D2
lovel=24
sample=Contrabass_fast_legato_PP_D2_-12.opus

<region>
hivel=1
key=D2
lovel=1
sample=Contrabass_fast_legato_PP_D2_+1.opus

<region>
hivel=2
key=D2
lovel=2
sample=Contrabass_fast_legato_PP_D2_+2.opus

<region>
hivel=3
key=D2
lovel=3
sample=Contrabass_fast_legato_PP_D2_+3.opus

<region>
hivel=4
key=D2
lovel=4
sample=Contrabass_fast_legato_PP_D2_+4.opus

<region>
hivel=5
key=D2
lovel=5
sample=Contrabass_fast_legato_PP_D2_+5.opus

<region>
hivel=6
key=D2
lovel=6
sample=Contrabass_fast_legato_PP_D2_+6.opus

<region>
hivel=7
key=D2
lovel=7
sample=Contrabass_fast_legato_PP_D2_+7.opus

<region>
hivel=8
key=D2
lovel=8
sample=Contrabass_fast_legato_PP_D2_+8.opus

<region>
hivel=9
key=D2
lovel=9
sample=Contrabass_fast_legato_PP_D2_+9.opus

<region>
hivel=10
key=D2
lovel=10
sample=Contrabass_fast_legato_PP_D2_+10.opus

<region>
hivel=11
key=D2
lovel=11
sample=Contrabass_fast_legato_PP_D2_+11.opus

<region>
hivel=12
key=D2
lovel=12
sample=Contrabass_fast_legato_PP_D2_+12.opus

<region>
hivel=0
key=D2
lovel=0
sample=Contrabass_fast_legato_PP_D2.opus

<region>
hivel=13
key=D3
lovel=13
sample=Contrabass_fast_legato_PP_D3_-1.opus

<region>
hivel=14
key=D3
lovel=14
sample=Contrabass_fast_legato_PP_D3_-2.opus

<region>
hivel=15
key=D3
lovel=15
sample=Contrabass_fast_legato_PP_D3_-3.opus

<region>
hivel=16
key=D3
lovel=16
sample=Contrabass_fast_legato_PP_D3_-4.opus

<region>
hivel=17
key=D3
lovel=17
sample=Contrabass_fast_legato_PP_D3_-5.opus

<region>
hivel=18
key=D3
lovel=18
sample=Contrabass_fast_legato_PP_D3_-6.opus

<region>
hivel=19
key=D3
lovel=19
sample=Contrabass_fast_legato_PP_D3_-7.opus

<region>
hivel=20
key=D3
lovel=20
sample=Contrabass_fast_legato_PP_D3_-8.opus

<region>
hivel=21
key=D3
lovel=21
sample=Contrabass_fast_legato_PP_D3_-9.opus

<region>
hivel=22
key=D3
lovel=22
sample=Contrabass_fast_legato_PP_D3_-10.opus

<region>
hivel=23
key=D3
lovel=23
sample=Contrabass_fast_legato_PP_D3_-11.opus

<region>
hivel=24
key=D3
lovel=24
sample=Contrabass_fast_legato_PP_D3_-12.opus

<region>
hivel=1
key=D3
lovel=1
sample=Contrabass_fast_legato_PP_D3_+1.opus

<region>
hivel=2
key=D3
lovel=2
sample=Contrabass_fast_legato_PP_D3_+2.opus

<region>
hivel=3
key=D3
lovel=3
sample=Contrabass_fast_legato_PP_D3_+3.opus

<region>
hivel=4
key=D3
lovel=4
sample=Contrabass_fast_legato_PP_D3_+4.opus

<region>
hivel=5
key=D3
lovel=5
sample=Contrabass_fast_legato_PP_D3_+5.opus

<region>
hivel=6
key=D3
lovel=6
sample=Contrabass_fast_legato_PP_D3_+6.opus

<region>
hivel=7
key=D3
lovel=7
sample=Contrabass_fast_legato_PP_D3_+7.opus

<region>
hivel=8
key=D3
lovel=8
sample=Contrabass_fast_legato_PP_D3_+8.opus

<region>
hivel=9
key=D3
lovel=9
sample=Contrabass_fast_legato_PP_D3_+9.opus

<region>
hivel=10
key=D3
lovel=10
sample=Contrabass_fast_legato_PP_D3_+10.opus

<region>
hivel=11
key=D3
lovel=11
sample=Contrabass_fast_legato_PP_D3_+11.opus

<region>
hivel=12
key=D3
lovel=12
sample=Contrabass_fast_legato_PP_D3_+12.opus

<region>
hivel=0
key=D3
lovel=0
sample=Contrabass_fast_legato_PP_D3.opus

<region>
hivel=13
key=D4
lovel=13
sample=Contrabass_fast_legato_PP_D4_-1.opus

<region>
hivel=14
key=D4
lovel=14
sample=Contrabass_fast_legato_PP_D4_-2.opus

<region>
hivel=15
key=D4
lovel=15
sample=Contrabass_fast_legato_PP_D4_-3.opus

<region>
hivel=16
key=D4
lovel=16
sample=Contrabass_fast_legato_PP_D4_-4.opus

<region>
hivel=17
key=D4
lovel=17
sample=Contrabass_fast_legato_PP_D4_-5.opus

<region>
hivel=18
key=D4
lovel=18
sample=Contrabass_fast_legato_PP_D4_-6.opus

<region>
hivel=19
key=D4
lovel=19
sample=Contrabass_fast_legato_PP_D4_-7.opus

<region>
hivel=20
key=D4
lovel=20
sample=Contrabass_fast_legato_PP_D4_-8.opus

<region>
hivel=21
key=D4
lovel=21
sample=Contrabass_fast_legato_PP_D4_-9.opus

<region>
hivel=22
key=D4
lovel=22
sample=Contrabass_fast_legato_PP_D4_-10.opus

<region>
hivel=1
key=D4
lovel=1
sample=Contrabass_fast_legato_PP_D4_+1.opus

<region>
hivel=2
key=D4
lovel=2
sample=Contrabass_fast_legato_PP_D4_+2.opus

<region>
hivel=3
key=D4
lovel=3
sample=Contrabass_fast_legato_PP_D4_+3.opus

<region>
hivel=4
key=D4
lovel=4
sample=Contrabass_fast_legato_PP_D4_+4.opus

<region>
hivel=5
key=D4
lovel=5
sample=Contrabass_fast_legato_PP_D4_+5.opus

<region>
hivel=6
key=D4
lovel=6
sample=Contrabass_fast_legato_PP_D4_+6.opus

<region>
hivel=7
key=D4
lovel=7
sample=Contrabass_fast_legato_PP_D4_+7.opus

<region>
hivel=8
key=D4
lovel=8
sample=Contrabass_fast_legato_PP_D4_+8.opus

<region>
hivel=9
key=D4
lovel=9
sample=Contrabass_fast_legato_PP_D4_+9.opus

<region>
hivel=10
key=D4
lovel=10
sample=Contrabass_fast_legato_PP_D4_+10.opus

<region>
hivel=0
key=D4
lovel=0
sample=Contrabass_fast_legato_PP_D4.opus

<region>
hivel=13
key=E2
lovel=13
sample=Contrabass_fast_legato_PP_E2_-1.opus

<region>
hivel=14
key=E2
lovel=14
sample=Contrabass_fast_legato_PP_E2_-2.opus

<region>
hivel=15
key=E2
lovel=15
sample=Contrabass_fast_legato_PP_E2_-3.opus

<region>
hivel=16
key=E2
lovel=16
sample=Contrabass_fast_legato_PP_E2_-4.opus

<region>
hivel=17
key=E2
lovel=17
sample=Contrabass_fast_legato_PP_E2_-5.opus

<region>
hivel=18
key=E2
lovel=18
sample=Contrabass_fast_legato_PP_E2_-6.opus

<region>
hivel=19
key=E2
lovel=19
sample=Contrabass_fast_legato_PP_E2_-7.opus

<region>
hivel=20
key=E2
lovel=20
sample=Contrabass_fast_legato_PP_E2_-8.opus

<region>
hivel=21
key=E2
lovel=21
sample=Contrabass_fast_legato_PP_E2_-9.opus

<region>
hivel=22
key=E2
lovel=22
sample=Contrabass_fast_legato_PP_E2_-10.opus

<region>
hivel=23
key=E2
lovel=23
sample=Contrabass_fast_legato_PP_E2_-11.opus

<region>
hivel=24
key=E2
lovel=24
sample=Contrabass_fast_legato_PP_E2_-12.opus

<region>
hivel=1
key=E2
lovel=1
sample=Contrabass_fast_legato_PP_E2_+1.opus

<region>
hivel=2
key=E2
lovel=2
sample=Contrabass_fast_legato_PP_E2_+2.opus

<region>
hivel=3
key=E2
lovel=3
sample=Contrabass_fast_legato_PP_E2_+3.opus

<region>
hivel=4
key=E2
lovel=4
sample=Contrabass_fast_legato_PP_E2_+4.opus

<region>
hivel=5
key=E2
lovel=5
sample=Contrabass_fast_legato_PP_E2_+5.opus

<region>
hivel=6
key=E2
lovel=6
sample=Contrabass_fast_legato_PP_E2_+6.opus

<region>
hivel=7
key=E2
lovel=7
sample=Contrabass_fast_legato_PP_E2_+7.opus

<region>
hivel=8
key=E2
lovel=8
sample=Contrabass_fast_legato_PP_E2_+8.opus

<region>
hivel=9
key=E2
lovel=9
sample=Contrabass_fast_legato_PP_E2_+9.opus

<region>
hivel=10
key=E2
lovel=10
sample=Contrabass_fast_legato_PP_E2_+10.opus

<region>
hivel=11
key=E2
lovel=11
sample=Contrabass_fast_legato_PP_E2_+11.opus

<region>
hivel=12
key=E2
lovel=12
sample=Contrabass_fast_legato_PP_E2_+12.opus

<region>
hivel=0
key=E2
lovel=0
sample=Contrabass_fast_legato_PP_E2.opus

<region>
hivel=13
key=E3
lovel=13
sample=Contrabass_fast_legato_PP_E3_-1.opus

<region>
hivel=14
key=E3
lovel=14
sample=Contrabass_fast_legato_PP_E3_-2.opus

<region>
hivel=15
key=E3
lovel=15
sample=Contrabass_fast_legato_PP_E3_-3.opus

<region>
hivel=16
key=E3
lovel=16
sample=Contrabass_fast_legato_PP_E3_-4.opus

<region>
hivel=17
key=E3
lovel=17
sample=Contrabass_fast_legato_PP_E3_-5.opus

<region>
hivel=18
key=E3
lovel=18
sample=Contrabass_fast_legato_PP_E3_-6.opus

<region>
hivel=19
key=E3
lovel=19
sample=Contrabass_fast_legato_PP_E3_-7.opus

<region>
hivel=20
key=E3
lovel=20
sample=Contrabass_fast_legato_PP_E3_-8.opus

<region>
hivel=21
key=E3
lovel=21
sample=Contrabass_fast_legato_PP_E3_-9.opus

<region>
hivel=22
key=E3
lovel=22
sample=Contrabass_fast_legato_PP_E3_-10.opus

<region>
hivel=23
key=E3
lovel=23
sample=Contrabass_fast_legato_PP_E3_-11.opus

<region>
hivel=24
key=E3
lovel=24
sample=Contrabass_fast_legato_PP_E3_-12.opus

<region>
hivel=1
key=E3
lovel=1
sample=Contrabass_fast_legato_PP_E3_+1.opus

<region>
hivel=2
key=E3
lovel=2
sample=Contrabass_fast_legato_PP_E3_+2.opus

<region>
hivel=3
key=E3
lovel=3
sample=Contrabass_fast_legato_PP_E3_+3.opus

<region>
hivel=4
key=E3
lovel=4
sample=Contrabass_fast_legato_PP_E3_+4.opus

<region>
hivel=5
key=E3
lovel=5
sample=Contrabass_fast_legato_PP_E3_+5.opus

<region>
hivel=6
key=E3
lovel=6
sample=Contrabass_fast_legato_PP_E3_+6.opus

<region>
hivel=7
key=E3
lovel=7
sample=Contrabass_fast_legato_PP_E3_+7.opus

<region>
hivel=8
key=E3
lovel=8
sample=Contrabass_fast_legato_PP_E3_+8.opus

<region>
hivel=9
key=E3
lovel=9
sample=Contrabass_fast_legato_PP_E3_+9.opus

<region>
hivel=10
key=E3
lovel=10
sample=Contrabass_fast_legato_PP_E3_+10.opus

<region>
hivel=11
key=E3
lovel=11
sample=Contrabass_fast_legato_PP_E3_+11.opus

<region>
hivel=12
key=E3
lovel=12
sample=Contrabass_fast_legato_PP_E3_+12.opus

<region>
hivel=0
key=E3
lovel=0
sample=Contrabass_fast_legato_PP_E3.opus

<region>
hivel=13
key=E4
lovel=13
sample=Contrabass_fast_legato_PP_E4_-1.opus

<region>
hivel=14
key=E4
lovel=14
sample=Contrabass_fast_legato_PP_E4_-2.opus

<region>
hivel=15
key=E4
lovel=15
sample=Contrabass_fast_legato_PP_E4_-3.opus

<region>
hivel=16
key=E4
lovel=16
sample=Contrabass_fast_legato_PP_E4_-4.opus

<region>
hivel=17
key=E4
lovel=17
sample=Contrabass_fast_legato_PP_E4_-5.opus

<region>
hivel=18
key=E4
lovel=18
sample=Contrabass_fast_legato_PP_E4_-6.opus

<region>
hivel=19
key=E4
lovel=19
sample=Contrabass_fast_legato_PP_E4_-7.opus

<region>
hivel=20
key=E4
lovel=20
sample=Contrabass_fast_legato_PP_E4_-8.opus

<region>
hivel=1
key=E4
lovel=1
sample=Contrabass_fast_legato_PP_E4_+1.opus

<region>
hivel=2
key=E4
lovel=2
sample=Contrabass_fast_legato_PP_E4_+2.opus

<region>
hivel=3
key=E4
lovel=3
sample=Contrabass_fast_legato_PP_E4_+3.opus

<region>
hivel=4
key=E4
lovel=4
sample=Contrabass_fast_legato_PP_E4_+4.opus

<region>
hivel=5
key=E4
lovel=5
sample=Contrabass_fast_legato_PP_E4_+5.opus

<region>
hivel=6
key=E4
lovel=6
sample=Contrabass_fast_legato_PP_E4_+6.opus

<region>
hivel=7
key=E4
lovel=7
sample=Contrabass_fast_legato_PP_E4_+7.opus

<region>
hivel=8
key=E4
lovel=8
sample=Contrabass_fast_legato_PP_E4_+8.opus

<region>
hivel=0
key=E4
lovel=0
sample=Contrabass_fast_legato_PP_E4.opus

<region>
hivel=13
key=F#2
lovel=13
sample=Contrabass_fast_legato_PP_F#2_-1.opus

<region>
hivel=14
key=F#2
lovel=14
sample=Contrabass_fast_legato_PP_F#2_-2.opus

<region>
hivel=15
key=F#2
lovel=15
sample=Contrabass_fast_legato_PP_F#2_-3.opus

<region>
hivel=16
key=F#2
lovel=16
sample=Contrabass_fast_legato_PP_F#2_-4.opus

<region>
hivel=17
key=F#2
lovel=17
sample=Contrabass_fast_legato_PP_F#2_-5.opus

<region>
hivel=18
key=F#2
lovel=18
sample=Contrabass_fast_legato_PP_F#2_-6.opus

<region>
hivel=19
key=F#2
lovel=19
sample=Contrabass_fast_legato_PP_F#2_-7.opus

<region>
hivel=20
key=F#2
lovel=20
sample=Contrabass_fast_legato_PP_F#2_-8.opus

<region>
hivel=21
key=F#2
lovel=21
sample=Contrabass_fast_legato_PP_F#2_-9.opus

<region>
hivel=22
key=F#2
lovel=22
sample=Contrabass_fast_legato_PP_F#2_-10.opus

<region>
hivel=23
key=F#2
lovel=23
sample=Contrabass_fast_legato_PP_F#2_-11.opus

<region>
hivel=24
key=F#2
lovel=24
sample=Contrabass_fast_legato_PP_F#2_-12.opus

<region>
hivel=1
key=F#2
lovel=1
sample=Contrabass_fast_legato_PP_F#2_+1.opus

<region>
hivel=2
key=F#2
lovel=2
sample=Contrabass_fast_legato_PP_F#2_+2.opus

<region>
hivel=3
key=F#2
lovel=3
sample=Contrabass_fast_legato_PP_F#2_+3.opus

<region>
hivel=4
key=F#2
lovel=4
sample=Contrabass_fast_legato_PP_F#2_+4.opus

<region>
hivel=5
key=F#2
lovel=5
sample=Contrabass_fast_legato_PP_F#2_+5.opus

<region>
hivel=6
key=F#2
lovel=6
sample=Contrabass_fast_legato_PP_F#2_+6.opus

<region>
hivel=7
key=F#2
lovel=7
sample=Contrabass_fast_legato_PP_F#2_+7.opus

<region>
hivel=8
key=F#2
lovel=8
sample=Contrabass_fast_legato_PP_F#2_+8.opus

<region>
hivel=9
key=F#2
lovel=9
sample=Contrabass_fast_legato_PP_F#2_+9.opus

<region>
hivel=10
key=F#2
lovel=10
sample=Contrabass_fast_legato_PP_F#2_+10.opus

<region>
hivel=11
key=F#2
lovel=11
sample=Contrabass_fast_legato_PP_F#2_+11.opus

<region>
hivel=12
key=F#2
lovel=12
sample=Contrabass_fast_legato_PP_F#2_+12.opus

<region>
hivel=0
key=F#2
lovel=0
sample=Contrabass_fast_legato_PP_F#2.opus

<region>
hivel=13
key=F#3
lovel=13
sample=Contrabass_fast_legato_PP_F#3_-1.opus

<region>
hivel=14
key=F#3
lovel=14
sample=Contrabass_fast_legato_PP_F#3_-2.opus

<region>
hivel=15
key=F#3
lovel=15
sample=Contrabass_fast_legato_PP_F#3_-3.opus

<region>
hivel=16
key=F#3
lovel=16
sample=Contrabass_fast_legato_PP_F#3_-4.opus

<region>
hivel=17
key=F#3
lovel=17
sample=Contrabass_fast_legato_PP_F#3_-5.opus

<region>
hivel=18
key=F#3
lovel=18
sample=Contrabass_fast_legato_PP_F#3_-6.opus

<region>
hivel=19
key=F#3
lovel=19
sample=Contrabass_fast_legato_PP_F#3_-7.opus

<region>
hivel=20
key=F#3
lovel=20
sample=Contrabass_fast_legato_PP_F#3_-8.opus

<region>
hivel=21
key=F#3
lovel=21
sample=Contrabass_fast_legato_PP_F#3_-9.opus

<region>
hivel=22
key=F#3
lovel=22
sample=Contrabass_fast_legato_PP_F#3_-10.opus

<region>
hivel=23
key=F#3
lovel=23
sample=Contrabass_fast_legato_PP_F#3_-11.opus

<region>
hivel=24
key=F#3
lovel=24
sample=Contrabass_fast_legato_PP_F#3_-12.opus

<region>
hivel=1
key=F#3
lovel=1
sample=Contrabass_fast_legato_PP_F#3_+1.opus

<region>
hivel=2
key=F#3
lovel=2
sample=Contrabass_fast_legato_PP_F#3_+2.opus

<region>
hivel=3
key=F#3
lovel=3
sample=Contrabass_fast_legato_PP_F#3_+3.opus

<region>
hivel=4
key=F#3
lovel=4
sample=Contrabass_fast_legato_PP_F#3_+4.opus

<region>
hivel=5
key=F#3
lovel=5
sample=Contrabass_fast_legato_PP_F#3_+5.opus

<region>
hivel=6
key=F#3
lovel=6
sample=Contrabass_fast_legato_PP_F#3_+6.opus

<region>
hivel=7
key=F#3
lovel=7
sample=Contrabass_fast_legato_PP_F#3_+7.opus

<region>
hivel=8
key=F#3
lovel=8
sample=Contrabass_fast_legato_PP_F#3_+8.opus

<region>
hivel=9
key=F#3
lovel=9
sample=Contrabass_fast_legato_PP_F#3_+9.opus

<region>
hivel=10
key=F#3
lovel=10
sample=Contrabass_fast_legato_PP_F#3_+10.opus

<region>
hivel=11
key=F#3
lovel=11
sample=Contrabass_fast_legato_PP_F#3_+11.opus

<region>
hivel=12
key=F#3
lovel=12
sample=Contrabass_fast_legato_PP_F#3_+12.opus

<region>
hivel=0
key=F#3
lovel=0
sample=Contrabass_fast_legato_PP_F#3.opus

<region>
hivel=13
key=F#4
lovel=13
sample=Contrabass_fast_legato_PP_F#4_-1.opus

<region>
hivel=14
key=F#4
lovel=14
sample=Contrabass_fast_legato_PP_F#4_-2.opus

<region>
hivel=15
key=F#4
lovel=15
sample=Contrabass_fast_legato_PP_F#4_-3.opus

<region>
hivel=16
key=F#4
lovel=16
sample=Contrabass_fast_legato_PP_F#4_-4.opus

<region>
hivel=17
key=F#4
lovel=17
sample=Contrabass_fast_legato_PP_F#4_-5.opus

<region>
hivel=1
key=F#4
lovel=1
sample=Contrabass_fast_legato_PP_F#4_+1.opus

<region>
hivel=2
key=F#4
lovel=2
sample=Contrabass_fast_legato_PP_F#4_+2.opus

<region>
hivel=3
key=F#4
lovel=3
sample=Contrabass_fast_legato_PP_F#4_+3.opus

<region>
hivel=4
key=F#4
lovel=4
sample=Contrabass_fast_legato_PP_F#4_+4.opus

<region>
hivel=5
key=F#4
lovel=5
sample=Contrabass_fast_legato_PP_F#4_+5.opus

<region>
hivel=0
key=F#4
lovel=0
sample=Contrabass_fast_legato_PP_F#4.opus

<region>
hivel=13
key=F2
lovel=13
sample=Contrabass_fast_legato_PP_F2_-1.opus

<region>
hivel=14
key=F2
lovel=14
sample=Contrabass_fast_legato_PP_F2_-2.opus

<region>
hivel=15
key=F2
lovel=15
sample=Contrabass_fast_legato_PP_F2_-3.opus

<region>
hivel=16
key=F2
lovel=16
sample=Contrabass_fast_legato_PP_F2_-4.opus

<region>
hivel=17
key=F2
lovel=17
sample=Contrabass_fast_legato_PP_F2_-5.opus

<region>
hivel=18
key=F2
lovel=18
sample=Contrabass_fast_legato_PP_F2_-6.opus

<region>
hivel=19
key=F2
lovel=19
sample=Contrabass_fast_legato_PP_F2_-7.opus

<region>
hivel=20
key=F2
lovel=20
sample=Contrabass_fast_legato_PP_F2_-8.opus

<region>
hivel=21
key=F2
lovel=21
sample=Contrabass_fast_legato_PP_F2_-9.opus

<region>
hivel=22
key=F2
lovel=22
sample=Contrabass_fast_legato_PP_F2_-10.opus

<region>
hivel=23
key=F2
lovel=23
sample=Contrabass_fast_legato_PP_F2_-11.opus

<region>
hivel=24
key=F2
lovel=24
sample=Contrabass_fast_legato_PP_F2_-12.opus

<region>
hivel=1
key=F2
lovel=1
sample=Contrabass_fast_legato_PP_F2_+1.opus

<region>
hivel=2
key=F2
lovel=2
sample=Contrabass_fast_legato_PP_F2_+2.opus

<region>
hivel=3
key=F2
lovel=3
sample=Contrabass_fast_legato_PP_F2_+3.opus

<region>
hivel=4
key=F2
lovel=4
sample=Contrabass_fast_legato_PP_F2_+4.opus

<region>
hivel=5
key=F2
lovel=5
sample=Contrabass_fast_legato_PP_F2_+5.opus

<region>
hivel=6
key=F2
lovel=6
sample=Contrabass_fast_legato_PP_F2_+6.opus

<region>
hivel=7
key=F2
lovel=7
sample=Contrabass_fast_legato_PP_F2_+7.opus

<region>
hivel=8
key=F2
lovel=8
sample=Contrabass_fast_legato_PP_F2_+8.opus

<region>
hivel=9
key=F2
lovel=9
sample=Contrabass_fast_legato_PP_F2_+9.opus

<region>
hivel=10
key=F2
lovel=10
sample=Contrabass_fast_legato_PP_F2_+10.opus

<region>
hivel=11
key=F2
lovel=11
sample=Contrabass_fast_legato_PP_F2_+11.opus

<region>
hivel=12
key=F2
lovel=12
sample=Contrabass_fast_legato_PP_F2_+12.opus

<region>
hivel=0
key=F2
lovel=0
sample=Contrabass_fast_legato_PP_F2.opus

<region>
hivel=13
key=F3
lovel=13
sample=Contrabass_fast_legato_PP_F3_-1.opus

<region>
hivel=14
key=F3
lovel=14
sample=Contrabass_fast_legato_PP_F3_-2.opus

<region>
hivel=15
key=F3
lovel=15
sample=Contrabass_fast_legato_PP_F3_-3.opus

<region>
hivel=16
key=F3
lovel=16
sample=Contrabass_fast_legato_PP_F3_-4.opus

<region>
hivel=17
key=F3
lovel=17
sample=Contrabass_fast_legato_PP_F3_-5.opus

<region>
hivel=18
key=F3
lovel=18
sample=Contrabass_fast_legato_PP_F3_-6.opus

<region>
hivel=19
key=F3
lovel=19
sample=Contrabass_fast_legato_PP_F3_-7.opus

<region>
hivel=20
key=F3
lovel=20
sample=Contrabass_fast_legato_PP_F3_-8.opus

<region>
hivel=21
key=F3
lovel=21
sample=Contrabass_fast_legato_PP_F3_-9.opus

<region>
hivel=22
key=F3
lovel=22
sample=Contrabass_fast_legato_PP_F3_-10.opus

<region>
hivel=23
key=F3
lovel=23
sample=Contrabass_fast_legato_PP_F3_-11.opus

<region>
hivel=24
key=F3
lovel=24
sample=Contrabass_fast_legato_PP_F3_-12.opus

<region>
hivel=1
key=F3
lovel=1
sample=Contrabass_fast_legato_PP_F3_+1.opus

<region>
hivel=2
key=F3
lovel=2
sample=Contrabass_fast_legato_PP_F3_+2.opus

<region>
hivel=3
key=F3
lovel=3
sample=Contrabass_fast_legato_PP_F3_+3.opus

<region>
hivel=4
key=F3
lovel=4
sample=Contrabass_fast_legato_PP_F3_+4.opus

<region>
hivel=5
key=F3
lovel=5
sample=Contrabass_fast_legato_PP_F3_+5.opus

<region>
hivel=6
key=F3
lovel=6
sample=Contrabass_fast_legato_PP_F3_+6.opus

<region>
hivel=7
key=F3
lovel=7
sample=Contrabass_fast_legato_PP_F3_+7.opus

<region>
hivel=8
key=F3
lovel=8
sample=Contrabass_fast_legato_PP_F3_+8.opus

<region>
hivel=9
key=F3
lovel=9
sample=Contrabass_fast_legato_PP_F3_+9.opus

<region>
hivel=10
key=F3
lovel=10
sample=Contrabass_fast_legato_PP_F3_+10.opus

<region>
hivel=11
key=F3
lovel=11
sample=Contrabass_fast_legato_PP_F3_+11.opus

<region>
hivel=12
key=F3
lovel=12
sample=Contrabass_fast_legato_PP_F3_+12.opus

<region>
hivel=0
key=F3
lovel=0
sample=Contrabass_fast_legato_PP_F3.opus

<region>
hivel=13
key=F4
lovel=13
sample=Contrabass_fast_legato_PP_F4_-1.opus

<region>
hivel=14
key=F4
lovel=14
sample=Contrabass_fast_legato_PP_F4_-2.opus

<region>
hivel=15
key=F4
lovel=15
sample=Contrabass_fast_legato_PP_F4_-3.opus

<region>
hivel=16
key=F4
lovel=16
sample=Contrabass_fast_legato_PP_F4_-4.opus

<region>
hivel=17
key=F4
lovel=17
sample=Contrabass_fast_legato_PP_F4_-5.opus

<region>
hivel=18
key=F4
lovel=18
sample=Contrabass_fast_legato_PP_F4_-6.opus

<region>
hivel=19
key=F4
lovel=19
sample=Contrabass_fast_legato_PP_F4_-7.opus

<region>
hivel=1
key=F4
lovel=1
sample=Contrabass_fast_legato_PP_F4_+1.opus

<region>
hivel=2
key=F4
lovel=2
sample=Contrabass_fast_legato_PP_F4_+2.opus

<region>
hivel=3
key=F4
lovel=3
sample=Contrabass_fast_legato_PP_F4_+3.opus

<region>
hivel=4
key=F4
lovel=4
sample=Contrabass_fast_legato_PP_F4_+4.opus

<region>
hivel=5
key=F4
lovel=5
sample=Contrabass_fast_legato_PP_F4_+5.opus

<region>
hivel=6
key=F4
lovel=6
sample=Contrabass_fast_legato_PP_F4_+6.opus

<region>
hivel=7
key=F4
lovel=7
sample=Contrabass_fast_legato_PP_F4_+7.opus

<region>
hivel=0
key=F4
lovel=0
sample=Contrabass_fast_legato_PP_F4.opus

<region>
hivel=13
key=G#2
lovel=13
sample=Contrabass_fast_legato_PP_G#2_-1.opus

<region>
hivel=14
key=G#2
lovel=14
sample=Contrabass_fast_legato_PP_G#2_-2.opus

<region>
hivel=15
key=G#2
lovel=15
sample=Contrabass_fast_legato_PP_G#2_-3.opus

<region>
hivel=16
key=G#2
lovel=16
sample=Contrabass_fast_legato_PP_G#2_-4.opus

<region>
hivel=17
key=G#2
lovel=17
sample=Contrabass_fast_legato_PP_G#2_-5.opus

<region>
hivel=18
key=G#2
lovel=18
sample=Contrabass_fast_legato_PP_G#2_-6.opus

<region>
hivel=19
key=G#2
lovel=19
sample=Contrabass_fast_legato_PP_G#2_-7.opus

<region>
hivel=20
key=G#2
lovel=20
sample=Contrabass_fast_legato_PP_G#2_-8.opus

<region>
hivel=21
key=G#2
lovel=21
sample=Contrabass_fast_legato_PP_G#2_-9.opus

<region>
hivel=22
key=G#2
lovel=22
sample=Contrabass_fast_legato_PP_G#2_-10.opus

<region>
hivel=23
key=G#2
lovel=23
sample=Contrabass_fast_legato_PP_G#2_-11.opus

<region>
hivel=24
key=G#2
lovel=24
sample=Contrabass_fast_legato_PP_G#2_-12.opus

<region>
hivel=1
key=G#2
lovel=1
sample=Contrabass_fast_legato_PP_G#2_+1.opus

<region>
hivel=2
key=G#2
lovel=2
sample=Contrabass_fast_legato_PP_G#2_+2.opus

<region>
hivel=3
key=G#2
lovel=3
sample=Contrabass_fast_legato_PP_G#2_+3.opus

<region>
hivel=4
key=G#2
lovel=4
sample=Contrabass_fast_legato_PP_G#2_+4.opus

<region>
hivel=5
key=G#2
lovel=5
sample=Contrabass_fast_legato_PP_G#2_+5.opus

<region>
hivel=6
key=G#2
lovel=6
sample=Contrabass_fast_legato_PP_G#2_+6.opus

<region>
hivel=7
key=G#2
lovel=7
sample=Contrabass_fast_legato_PP_G#2_+7.opus

<region>
hivel=8
key=G#2
lovel=8
sample=Contrabass_fast_legato_PP_G#2_+8.opus

<region>
hivel=9
key=G#2
lovel=9
sample=Contrabass_fast_legato_PP_G#2_+9.opus

<region>
hivel=10
key=G#2
lovel=10
sample=Contrabass_fast_legato_PP_G#2_+10.opus

<region>
hivel=11
key=G#2
lovel=11
sample=Contrabass_fast_legato_PP_G#2_+11.opus

<region>
hivel=12
key=G#2
lovel=12
sample=Contrabass_fast_legato_PP_G#2_+12.opus

<region>
hivel=0
key=G#2
lovel=0
sample=Contrabass_fast_legato_PP_G#2.opus

<region>
hivel=13
key=G#3
lovel=13
sample=Contrabass_fast_legato_PP_G#3_-1.opus

<region>
hivel=14
key=G#3
lovel=14
sample=Contrabass_fast_legato_PP_G#3_-2.opus

<region>
hivel=15
key=G#3
lovel=15
sample=Contrabass_fast_legato_PP_G#3_-3.opus

<region>
hivel=16
key=G#3
lovel=16
sample=Contrabass_fast_legato_PP_G#3_-4.opus

<region>
hivel=17
key=G#3
lovel=17
sample=Contrabass_fast_legato_PP_G#3_-5.opus

<region>
hivel=18
key=G#3
lovel=18
sample=Contrabass_fast_legato_PP_G#3_-6.opus

<region>
hivel=19
key=G#3
lovel=19
sample=Contrabass_fast_legato_PP_G#3_-7.opus

<region>
hivel=20
key=G#3
lovel=20
sample=Contrabass_fast_legato_PP_G#3_-8.opus

<region>
hivel=21
key=G#3
lovel=21
sample=Contrabass_fast_legato_PP_G#3_-9.opus

<region>
hivel=22
key=G#3
lovel=22
sample=Contrabass_fast_legato_PP_G#3_-10.opus

<region>
hivel=23
key=G#3
lovel=23
sample=Contrabass_fast_legato_PP_G#3_-11.opus

<region>
hivel=24
key=G#3
lovel=24
sample=Contrabass_fast_legato_PP_G#3_-12.opus

<region>
hivel=1
key=G#3
lovel=1
sample=Contrabass_fast_legato_PP_G#3_+1.opus

<region>
hivel=2
key=G#3
lovel=2
sample=Contrabass_fast_legato_PP_G#3_+2.opus

<region>
hivel=3
key=G#3
lovel=3
sample=Contrabass_fast_legato_PP_G#3_+3.opus

<region>
hivel=4
key=G#3
lovel=4
sample=Contrabass_fast_legato_PP_G#3_+4.opus

<region>
hivel=5
key=G#3
lovel=5
sample=Contrabass_fast_legato_PP_G#3_+5.opus

<region>
hivel=6
key=G#3
lovel=6
sample=Contrabass_fast_legato_PP_G#3_+6.opus

<region>
hivel=7
key=G#3
lovel=7
sample=Contrabass_fast_legato_PP_G#3_+7.opus

<region>
hivel=8
key=G#3
lovel=8
sample=Contrabass_fast_legato_PP_G#3_+8.opus

<region>
hivel=9
key=G#3
lovel=9
sample=Contrabass_fast_legato_PP_G#3_+9.opus

<region>
hivel=10
key=G#3
lovel=10
sample=Contrabass_fast_legato_PP_G#3_+10.opus

<region>
hivel=11
key=G#3
lovel=11
sample=Contrabass_fast_legato_PP_G#3_+11.opus

<region>
hivel=12
key=G#3
lovel=12
sample=Contrabass_fast_legato_PP_G#3_+12.opus

<region>
hivel=0
key=G#3
lovel=0
sample=Contrabass_fast_legato_PP_G#3.opus

<region>
hivel=13
key=G#4
lovel=13
sample=Contrabass_fast_legato_PP_G#4_-1.opus

<region>
hivel=14
key=G#4
lovel=14
sample=Contrabass_fast_legato_PP_G#4_-2.opus

<region>
hivel=15
key=G#4
lovel=15
sample=Contrabass_fast_legato_PP_G#4_-3.opus

<region>
hivel=16
key=G#4
lovel=16
sample=Contrabass_fast_legato_PP_G#4_-4.opus

<region>
hivel=1
key=G#4
lovel=1
sample=Contrabass_fast_legato_PP_G#4_+1.opus

<region>
hivel=2
key=G#4
lovel=2
sample=Contrabass_fast_legato_PP_G#4_+2.opus

<region>
hivel=3
key=G#4
lovel=3
sample=Contrabass_fast_legato_PP_G#4_+3.opus

<region>
hivel=4
key=G#4
lovel=4
sample=Contrabass_fast_legato_PP_G#4_+4.opus

<region>
hivel=0
key=G#4
lovel=0
sample=Contrabass_fast_legato_PP_G#4.opus

<region>
hivel=13
key=G2
lovel=13
sample=Contrabass_fast_legato_PP_G2_-1.opus

<region>
hivel=14
key=G2
lovel=14
sample=Contrabass_fast_legato_PP_G2_-2.opus

<region>
hivel=15
key=G2
lovel=15
sample=Contrabass_fast_legato_PP_G2_-3.opus

<region>
hivel=16
key=G2
lovel=16
sample=Contrabass_fast_legato_PP_G2_-4.opus

<region>
hivel=17
key=G2
lovel=17
sample=Contrabass_fast_legato_PP_G2_-5.opus

<region>
hivel=18
key=G2
lovel=18
sample=Contrabass_fast_legato_PP_G2_-6.opus

<region>
hivel=19
key=G2
lovel=19
sample=Contrabass_fast_legato_PP_G2_-7.opus

<region>
hivel=20
key=G2
lovel=20
sample=Contrabass_fast_legato_PP_G2_-8.opus

<region>
hivel=21
key=G2
lovel=21
sample=Contrabass_fast_legato_PP_G2_-9.opus

<region>
hivel=22
key=G2
lovel=22
sample=Contrabass_fast_legato_PP_G2_-10.opus

<region>
hivel=23
key=G2
lovel=23
sample=Contrabass_fast_legato_PP_G2_-11.opus

<region>
hivel=24
key=G2
lovel=24
sample=Contrabass_fast_legato_PP_G2_-12.opus

<region>
hivel=1
key=G2
lovel=1
sample=Contrabass_fast_legato_PP_G2_+1.opus

<region>
hivel=2
key=G2
lovel=2
sample=Contrabass_fast_legato_PP_G2_+2.opus

<region>
hivel=3
key=G2
lovel=3
sample=Contrabass_fast_legato_PP_G2_+3.opus

<region>
hivel=4
key=G2
lovel=4
sample=Contrabass_fast_legato_PP_G2_+4.opus

<region>
hivel=5
key=G2
lovel=5
sample=Contrabass_fast_legato_PP_G2_+5.opus

<region>
hivel=6
key=G2
lovel=6
sample=Contrabass_fast_legato_PP_G2_+6.opus

<region>
hivel=7
key=G2
lovel=7
sample=Contrabass_fast_legato_PP_G2_+7.opus

<region>
hivel=8
key=G2
lovel=8
sample=Contrabass_fast_legato_PP_G2_+8.opus

<region>
hivel=9
key=G2
lovel=9
sample=Contrabass_fast_legato_PP_G2_+9.opus

<region>
hivel=10
key=G2
lovel=10
sample=Contrabass_fast_legato_PP_G2_+10.opus

<region>
hivel=11
key=G2
lovel=11
sample=Contrabass_fast_legato_PP_G2_+11.opus

<region>
hivel=12
key=G2
lovel=12
sample=Contrabass_fast_legato_PP_G2_+12.opus

<region>
hivel=0
key=G2
lovel=0
sample=Contrabass_fast_legato_PP_G2.opus

<region>
hivel=13
key=G3
lovel=13
sample=Contrabass_fast_legato_PP_G3_-1.opus

<region>
hivel=14
key=G3
lovel=14
sample=Contrabass_fast_legato_PP_G3_-2.opus

<region>
hivel=15
key=G3
lovel=15
sample=Contrabass_fast_legato_PP_G3_-3.opus

<region>
hivel=16
key=G3
lovel=16
sample=Contrabass_fast_legato_PP_G3_-4.opus

<region>
hivel=17
key=G3
lovel=17
sample=Contrabass_fast_legato_PP_G3_-5.opus

<region>
hivel=18
key=G3
lovel=18
sample=Contrabass_fast_legato_PP_G3_-6.opus

<region>
hivel=19
key=G3
lovel=19
sample=Contrabass_fast_legato_PP_G3_-7.opus

<region>
hivel=20
key=G3
lovel=20
sample=Contrabass_fast_legato_PP_G3_-8.opus

<region>
hivel=21
key=G3
lovel=21
sample=Contrabass_fast_legato_PP_G3_-9.opus

<region>
hivel=22
key=G3
lovel=22
sample=Contrabass_fast_legato_PP_G3_-10.opus

<region>
hivel=23
key=G3
lovel=23
sample=Contrabass_fast_legato_PP_G3_-11.opus

<region>
hivel=24
key=G3
lovel=24
sample=Contrabass_fast_legato_PP_G3_-12.opus

<region>
hivel=1
key=G3
lovel=1
sample=Contrabass_fast_legato_PP_G3_+1.opus

<region>
hivel=2
key=G3
lovel=2
sample=Contrabass_fast_legato_PP_G3_+2.opus

<region>
hivel=3
key=G3
lovel=3
sample=Contrabass_fast_legato_PP_G3_+3.opus

<region>
hivel=4
key=G3
lovel=4
sample=Contrabass_fast_legato_PP_G3_+4.opus

<region>
hivel=5
key=G3
lovel=5
sample=Contrabass_fast_legato_PP_G3_+5.opus

<region>
hivel=6
key=G3
lovel=6
sample=Contrabass_fast_legato_PP_G3_+6.opus

<region>
hivel=7
key=G3
lovel=7
sample=Contrabass_fast_legato_PP_G3_+7.opus

<region>
hivel=8
key=G3
lovel=8
sample=Contrabass_fast_legato_PP_G3_+8.opus

<region>
hivel=9
key=G3
lovel=9
sample=Contrabass_fast_legato_PP_G3_+9.opus

<region>
hivel=10
key=G3
lovel=10
sample=Contrabass_fast_legato_PP_G3_+10.opus

<region>
hivel=11
key=G3
lovel=11
sample=Contrabass_fast_legato_PP_G3_+11.opus

<region>
hivel=12
key=G3
lovel=12
sample=Contrabass_fast_legato_PP_G3_+12.opus

<region>
hivel=0
key=G3
lovel=0
sample=Contrabass_fast_legato_PP_G3.opus

<region>
hivel=13
key=G4
lovel=13
sample=Contrabass_fast_legato_PP_G4_-1.opus

<region>
hivel=14
key=G4
lovel=14
sample=Contrabass_fast_legato_PP_G4_-2.opus

<region>
hivel=15
key=G4
lovel=15
sample=Contrabass_fast_legato_PP_G4_-3.opus

<region>
hivel=16
key=G4
lovel=16
sample=Contrabass_fast_legato_PP_G4_-4.opus

<region>
hivel=17
key=G4
lovel=17
sample=Contrabass_fast_legato_PP_G4_-5.opus

<region>
hivel=1
key=G4
lovel=1
sample=Contrabass_fast_legato_PP_G4_+1.opus

<region>
hivel=2
key=G4
lovel=2
sample=Contrabass_fast_legato_PP_G4_+2.opus

<region>
hivel=3
key=G4
lovel=3
sample=Contrabass_fast_legato_PP_G4_+3.opus

<region>
hivel=4
key=G4
lovel=4
sample=Contrabass_fast_legato_PP_G4_+4.opus

<region>
hivel=5
key=G4
lovel=5
sample=Contrabass_fast_legato_PP_G4_+5.opus

<region>
hivel=0
key=G4
lovel=0
sample=Contrabass_fast_legato_PP_G4.opus

